<?xml version="1.0" encoding="UTF-8"?>
<!DOCTYPE svg PUBLIC "-//W3C//DTD SVG 1.1//EN" "http://www.w3.org/Graphics/SVG/1.1/DTD/svg11.dtd">
<!-- Creator: CorelDRAW 2018 (64-Bit Оценочная версия) -->
<svg xmlns="http://www.w3.org/2000/svg" xml:space="preserve" width="163.999mm" height="66.3369mm" version="1.1" style="shape-rendering:geometricPrecision; text-rendering:geometricPrecision; image-rendering:optimizeQuality; fill-rule:evenodd; clip-rule:evenodd"
viewBox="0 0 16224.05 6562.54"
 xmlns:xlink="http://www.w3.org/1999/xlink">
 <defs>
  <style type="text/css">
   <![CDATA[
    .str2 {stroke:#AE5A57;stroke-width:83.75;stroke-miterlimit:22.9256}
    .str1 {stroke:#9D9E9E;stroke-width:33.5;stroke-miterlimit:22.9256}
    .str0 {stroke:#2B2A29;stroke-width:19.79;stroke-miterlimit:22.9256}
    .fil14 {fill:none}
    .fil15 {fill:#C5C6C6}
    .fil6 {fill:#B2B3B3}
    .fil3 {fill:#898989}
    .fil5 {fill:#5B5B5B}
    .fil4 {fill:#434242}
    .fil2 {fill:#2B2A29}
    .fil9 {fill:#FFED00}
    .fil16 {fill:#E31E24}
    .fil0 {fill:#146E76}
    .fil8 {fill:#27303D}
    .fil10 {fill:#333F50}
    .fil13 {fill:#AE5A57}
    .fil1 {fill:#E1E1E1}
    .fil12 {fill:url(#id6)}
    .fil11 {fill:url(#id7)}
    .fil7 {fill:url(#id8)}
   ]]>
  </style>
     <clipPath id="id0">
      <path d="M13483.56 5028.36l1327.29 0 0 -10.85 -1327.29 0 0 10.85z"/>
     </clipPath>
     <clipPath id="id1">
      <path d="M13483.73 5124.96l1327.29 0 0 -10.85 -1327.29 0 0 10.85z"/>
     </clipPath>
     <clipPath id="id2">
      <path d="M13483.9 5221.54l1327.29 0 0 -10.85 -1327.29 0 0 10.85z"/>
     </clipPath>
     <clipPath id="id3">
      <path d="M13484.08 5318.13l1327.29 0 0 -10.85 -1327.29 0 0 10.85z"/>
     </clipPath>
     <clipPath id="id4">
      <path d="M13484.26 5414.73l1327.29 0 0 -10.85 -1327.29 0 0 10.85z"/>
     </clipPath>
     <clipPath id="id5">
      <path d="M13484.43 5511.32l1327.3 0 0 -10.85 -1327.3 0 0 10.85z"/>
     </clipPath>
  <linearGradient id="id6" gradientUnits="userSpaceOnUse" x1="6263.37" y1="5510.18" x2="7037.46" y2="5510.18">
   <stop offset="0" style="stop-opacity:1; stop-color:#333F50"/>
   <stop offset="0.768627" style="stop-opacity:1; stop-color:#333F50"/>
   <stop offset="1" style="stop-opacity:1; stop-color:#333F50"/>
  </linearGradient>
  <linearGradient id="id7" gradientUnits="userSpaceOnUse" xlink:href="#id6" x1="12515.6" y1="5421.87" x2="13363.47" y2="5421.87">
  </linearGradient>
  <linearGradient id="id8" gradientUnits="userSpaceOnUse" xlink:href="#id6" x1="2578.94" y1="5843.67" x2="4699.03" y2="5843.67">
  </linearGradient>
 </defs>
 <g id="Слой_x0020_1">
  <metadata id="CorelCorpID_0Corel-Layer"/>
  <rect class="fil0" x="157.55" y="6335.14" width="16066.49" height="227.4"/>
  <rect class="fil1" x="153.81" y="5590.27" width="16070.22" height="757.87"/>
  <path class="fil0" d="M118.02 5385.85l16.88 22.64c11.38,-0.67 153.9,-74.13 164.43,40.03 6.97,75.58 -31.8,128.84 -2.16,141.76l49.79 0c10.94,-1.79 23.7,-4.39 38.58,-7.86 0,-146.52 -25.37,-144.5 -39.34,-204.42l50.61 -8.54c28.31,10.07 5.98,26.5 12.34,39.99 30.21,7.03 81.46,15.11 94.42,47.18 19.26,-14.11 16.94,-10.7 23.6,-39.31 26.29,17.59 28.08,15.46 62.94,23.58 0.9,-2.46 4.75,-8.44 5.2,-9.74l-20.93 -68.87 39.33 0 0 228.01 2667.29 0c4.85,-58.12 25.68,-84.46 11.64,-161.01 -7.82,-42.65 -25.93,-107.87 -58.85,-129.9 -3.82,14.3 -1.63,7.95 -7.59,16l-16.02 15.45 9.05 15.33c-11.11,5.64 -9.49,5.12 -19.27,14.26 -1.46,1.36 -5.26,6.04 -6.63,7.25 -22.78,20.17 -38.06,-5.24 -38.23,-5.38 -24.23,-17.49 -15.21,3.16 -7.86,-31.46 -33.33,0.74 -48.65,4.1 -62.95,23.58 -17.54,11.74 -26.75,18.53 -62.69,15.7l-22.6 -8.1c-28.16,-7.61 -1.6,-12.69 -32.73,8.13 12.29,-57.99 -19.18,-35.56 37.34,-80.95 20.86,-16.77 21.47,-10.89 25.6,-60.57 -32.29,6.84 -37.41,-5.19 -47.21,31.45l-22.29 -26.6c-14.08,-32.26 -30.1,-36.51 2.47,-79.04 11.64,-15.21 9.07,-10.18 18.75,-21.18 18.19,-20.72 5.85,7.72 16.81,-22.56 -27.9,-11.53 -30.89,-7.24 -47.21,23.58l-31.47 -15.73c-2.76,-33.04 -5.07,-17.33 -2.46,-44.01l1.24 -16.97c-0.07,-0.69 -0.61,-2.85 -0.69,-3.59 -7.98,-71.28 66.85,-60.65 17.65,-76.96 1.42,-1.23 3.9,-4.69 4.55,-3.31l33.8 -29.12c21.58,-17.31 21,-14.73 56.06,-14.73l0 -15.73c-48.14,0 -38.7,14.8 -55.07,-7.86 -13.11,-13.84 -5.75,-14.84 -23.6,-7.86 9.82,22.91 14.4,9.11 -7.86,15.73l0 -15.73c-7.19,-8.26 -14.35,-14.34 -18.82,-29.03 -11.69,-38.41 2.5,-12.8 7.07,-52.1 10.11,-86.96 -17.28,27.9 23.6,-73.42l25.7 -25.23c15.84,-9.3 17.51,14.55 17.51,-63.97l-15.74 -23.58c16.15,-5.85 8.02,-2.14 20.05,-11.42 15.74,-12.14 8.6,-5.45 19.29,-20.03 -14.81,-44.63 -11.03,18.4 -16.37,-13.97 -2.9,-17.59 7.65,-5.59 9.89,-6.45 1.49,-0.56 4.15,-1.12 5.86,-1.74l23.72 -9.42c1.95,-1.39 6.72,-6.2 8.14,-7.89 7.28,-8.65 2.79,-0.92 8.1,-15.57 55.53,0 52.76,12.27 94.42,15.73 32.68,-68.06 14.32,-63.45 89.94,-49.9 43.64,7.82 29.54,-2.39 62.17,-18.84 31.78,-16.01 30.16,-2.88 68.2,-2.03 -12.91,60.87 9.63,-0.77 15.73,55.03 34.22,-0.76 48.36,-11.54 62.95,-31.45 36.29,9.69 0.49,9.62 50,11.7l16.49 1.3c1.64,0.34 3.77,1.13 5.43,1.54 55.34,14.05 64.83,10.05 90.95,44.01l10.87 20.76c10.86,46.44 -22.83,-27.56 8.36,21.75 20.1,31.78 -37.49,26.04 22.47,32.6 -10.74,14.65 -3.49,9.13 -27.63,15.16 -0.55,0.14 -2.67,0.01 -3.85,0.56 14.07,19.18 39.26,36.69 70.81,39.31l-5.96 10.2c-16.91,44.21 12.61,-3.61 5.96,76.28 -46.12,-3.83 -17.49,-6.61 -34.91,5.36 -43.65,29.98 28.66,-6.15 -12.3,10.37 32.82,22.78 51.46,35.46 42.15,82.03 -5.77,28.88 -25.11,-0.48 5.06,28.05 -31.01,-2.58 -40.71,-10.37 -65.87,-2.41l-20.68 10.27c17.25,23.88 8.89,7.56 21.01,15.19l34.06 63.44c-17.87,6.47 -11.87,2.64 -21.42,17.92 -6.44,10.31 -7.49,18.23 -10.05,29.26l-23.6 0c-1.03,-45.87 -3.37,-22.17 -47.21,-31.45l8.44 31.14c-20.28,31.05 6.83,-26.86 -24.18,16.04l9.05 15.33c-48.84,1.45 -24.25,-4.71 -32.66,16.12l83.49 18.69c11.78,5.98 7.51,5.36 19.17,11.45l26.72 14.37c28.15,15.56 -20.54,6.49 27.98,10.53 -8.43,36.14 -21.3,26.04 -7.87,55.04 10.22,8.53 5.93,-1.06 6.24,16.8 0.46,26.69 0.15,12.81 -6.24,22.52 -1.28,0.74 -3.74,-0.3 -4.27,1.2 -0.53,1.5 -3.59,0.86 -4.36,0.84 -15.66,-0.54 2.38,1.9 -14.67,-1.75 -20.12,-4.3 6.77,-4.95 -31.77,-8.15 7.58,10.34 -1.78,0.28 10.96,12.63l12.64 10.95c-40.35,9.4 -38.43,6.49 -31.47,39.31 -20.39,-5.44 -28.51,-13.69 -47.21,-23.58 -43.62,31.92 2.86,28.19 -78.69,47.17 6.28,29.64 1.07,11.7 -23.6,47.18 -5.2,-62.46 -38.24,-24.16 -31.48,-50.27 12.98,-50.14 19.73,25.51 7.87,-12.63 -37.1,0 -35.2,1.4 -62.94,7.86 -15.22,65.23 -15.63,82.31 -15.75,165.11 -0.11,86.35 -19.04,107.11 37.95,110.08l48.91 0c349.61,-5.63 741.72,0 1093.37,0l4429.74 0c0,-89.34 60.48,-200.19 -49.35,-250.36 -30.67,-14 -12.06,-11.73 -48.25,2.52 -75.14,29.59 -77.78,41.05 -99.1,11.95 33.1,0 31.79,3.31 55.07,-7.85 -9.07,-25.03 -15.73,-7.82 -15.73,-62.91 -42.69,11.4 -14.57,25.12 -51.08,51.18 -14.42,10.3 -10.28,7.7 -27.61,11.73 7.79,-29.15 7.94,-10.16 15.74,-39.31 -34.33,0.76 -105.04,49.63 -71.77,-6.83 14.57,-24.74 12.81,11.47 24.55,-32.49 -14.98,-7.18 -41.99,-13.99 -62.94,-15.73l0 -23.58c34.58,0.77 24.5,5.32 55.07,7.86l0 -47.18c-23.87,5.56 -18.8,10.01 -38.68,-0.37l-24.26 -31.08c58.35,-6.38 -11.27,-23.31 55.07,-7.86 -0.7,-31.37 -3.63,-29.1 -15.74,-47.18 25.92,-13.69 36.31,-32.02 38.5,-65.73 3.92,-60.21 -27.98,-27.77 -54.24,-20.75 -0.76,-34.37 -8.97,-29.07 -6.11,-54.57 5.25,-46.78 23.39,-2.22 7.79,-48.82 -7.62,-22.73 -23.82,-51.19 -4.08,-79.47 8.76,-12.55 3.42,-4.32 11.99,-11.95l17.44 -14.07c21.29,-18.21 37.56,-15.95 65.17,-37.09 34.39,-26.33 41.39,-40.26 88.77,-29.22 18.44,-34.82 4.5,-20.89 39.34,-39.31 -7.04,-84.63 -22.79,-35.51 127.82,-108.15 37.89,-18.27 87.43,-23.72 123.96,-41.24 0,-796.74 -0.21,-1593.48 0,-2390.22 0.04,-160.93 -4.16,-331.54 -22.46,-496.5 -2.83,-25.59 0.46,-51.66 -1.57,-77.04 -28.55,-356.42 -67.57,-712.82 -135.36,-1059.85l-108.13 -497.37c-34.77,23.28 -165.65,223.75 -173.09,251.6 -59.52,0 -89.31,7.86 -141.62,7.86 0,63.97 7.86,103.48 7.86,172.97l-23.6 0c-2.98,-35.78 -5.59,-64.68 -7.85,-110.09 -5.9,-118.22 -23.62,-220.64 -23.62,-345.94 -18.63,6.74 -10.63,2.79 -21.27,18.05l-264.56 498.29c-39.04,72.43 -136.62,227.71 -155.25,293.03 -11.98,42 -7.4,118.13 -7.4,173.44l-7.68 526.98c0.24,59.96 -8.1,104.2 -8.06,172.8 0.15,238.49 0,477 0,715.49l-7.86 0c0,-145.37 -9.03,-1175.03 0.42,-1289.04 5.92,-71.45 21.58,-233.65 5.67,-313.14 -3.23,-16.15 -288.47,-634.11 -312.94,-662.24 -15.43,66.17 -48.13,472.28 -47.29,558.17l-14.51 229.23c-8.91,79.32 -0.15,248.5 -14.73,354.82 -10.07,73.38 5.05,166.19 -3.3,240.43 -16.45,146.4 -6.72,328.86 -6.72,488.63 0,655.22 0,1310.42 0,1965.64l-118.02 0c0,-194.84 28.44,-138.24 -212.75,-141.21l-164.91 -8.18c-60.33,0.02 -120.65,0 -180.97,0l0 -283.05 -339.23 0.91c-60.95,-0.45 -46.31,-11.15 -46.31,-71.67l-23.6 0 0 70.76 -125.89 0 0.68 236.57c0.45,39.93 7.16,47.97 -24.18,54.46 -40.72,8.43 -256.27,-0.11 -314.84,-0.11l0 188.7 -519.3 0c0.91,-40.79 30.62,-54.55 74.41,-114.34 12.79,-17.45 20.83,-15.6 27.88,-35.05 -26.22,-12.57 -64.21,-7.86 -102.29,-7.86l0 -78.63 -346.2 0 0 -353.81c-23.83,17.45 -16.58,28.86 -16,70.51l0.26 283.31c-18.17,0 -62.88,2.26 -78.06,-0.6 -40.08,-7.56 -14.58,-19.87 -55.69,-30.85 1.7,-76.62 41.02,-67.49 -46.09,-80.67 -31.15,-4.71 -35.94,-20.52 -45.18,-1.72 -11.79,24.01 5.51,24.46 12.58,50.94 -60.31,89.99 -81.98,46.04 -212.48,-15.64 0.07,-125.12 -6.38,-256.74 4.42,-381.05 3.27,-37.71 -5.8,-20.15 -0.57,-48.49 6.05,-32.84 34.34,-40.96 34.59,-73.94 0.31,-40.04 -29.33,-32.97 -50.11,-66.74 -34.22,-55.62 -17.39,-17.41 -54.48,-55.64 -29.82,-30.73 -19.08,-54.51 -14.27,-92.25 5.66,-44.34 -11.82,-50.67 -28.29,-77.51 -46.23,-75.32 -3.72,-212.41 -204.81,-369.3 -24.89,-19.42 -38.61,-24.21 -62.53,-47.6 -41.21,-40.31 -19.91,-33.27 -40.93,-77.03 -23.15,5.39 -24.01,7.86 -55.07,7.86 0,-97.55 -9.64,-122.41 -0.49,-221.95 3.96,-43.11 -1.63,-32.68 -20.78,-55.54 -43.25,-51.65 -5.62,-189.94 -41.67,-265.03l-31.47 0c-7.54,18.22 -3.63,33.14 -15.7,62.68 -22.73,55.65 14.98,88.26 -16.38,172.6 -17.57,47.26 -15.81,29.28 -38.74,63.5 3.77,45.2 19.65,50.84 15.94,117.92 -2.71,49.15 -15.94,67.19 -15.94,125.82 -26.72,-2.22 -28.8,-5.99 -47.21,-15.72 -9.55,114.74 -198.34,143.3 -270.63,350.7 -16.14,46.33 -17.36,71.16 -30.17,119.24 -12.34,46.28 -46.79,56.88 -41.16,107.03 8.35,74.24 10.14,81.4 -38.36,112.27 -35.02,22.3 -23.55,46.18 -76.02,81.29 0,76.15 39.69,49.45 39.41,243.72 -0.08,56.69 -7.67,85.95 -8.26,133.37 -0.61,49.56 0.32,100.02 0.32,149.71 -28.54,15.09 -48.94,28.22 -81.27,44.6 -39.92,20.21 -97.54,43.69 -118.74,-18.76 -15.91,-46.85 40.5,-67.42 -22.38,-61.37 -25.76,2.47 -40.52,4.09 -68.72,4.09 -12.83,55.01 -3.52,21.94 7.86,70.75 -94.99,63.56 -64.96,39.31 -228.18,39.31 -89.17,0 -178.35,0 -267.52,0l0 78.63c-38.79,0 -83.76,-4.79 -110.16,7.86 12.92,19.26 19.7,17.37 31.5,31.44l11.94 19.51c26.47,47.52 58.85,28.91 58.85,98.44l-535.03 0c0,-85.16 7.02,-129.97 1.41,-189.49 -7,-74.14 5.27,-164.06 3.29,-204.42l-4.86 -321.95c2.01,-54.33 14.2,-48.34 -7.73,-93.98l-479.95 0c-0.32,13.96 0.96,2.19 -1.96,14.45l-5.22 18.38c-6.75,25.85 7.7,55.51 7.41,92.72 -0.62,80.4 6.02,164.24 0,244.46 -1.26,16.75 1.23,-2 -1.68,14.53 -4.62,26.27 -2.84,8.71 -5.31,18.24 -0.58,2.25 -2.51,8.06 -2.84,10.02 -4.36,26.78 -0.19,-3.27 0.11,12.95l6.54 55.89c15.95,67.31 -11.77,149.77 -6.21,180.09 8.59,46.81 2.37,-24.06 3.17,14.55 0.03,1.16 -0.27,3.52 -0.34,4.67 -0.08,1.16 -0.85,3.47 -1,4.62 -3.21,25.66 -3.21,-9.62 -2.79,13.66l7.09 26.14c12.87,55.93 3.04,343.53 3.04,414.67l-424.88 0 0 188.7 -259.65 0 0 -338.09 -47.21 0c-0.69,-30.9 2.15,-18.44 -7.86,-39.3l-220.31 0 0 39.3 -62.95 0 -7.86 -243.73c0,41.93 -0.09,83.87 0.01,125.81 0.12,51.81 -4.58,78.29 -7.88,117.92l-47.21 0c0,-93.3 23.22,-140.13 -39.33,-141.52l0 141.52c-31.97,0 -25.34,-2.62 -47.21,7.87l0 636.87c-17.73,4.13 -50.87,15.89 -73.65,3.19 -23.51,-13.12 -11.47,0.73 -5.98,-18.69 0.58,-2.07 14.62,-27.78 16.68,-31.68 -80.35,-53.77 3.53,-15.73 -105.09,-60.11 -48.21,-19.7 -62.05,-41.64 -120.72,-32.58l-72.19 22.9c-1.78,0.71 -3.81,1.59 -5.57,2.3 -5.14,2.08 -10.87,4.24 -16.89,6.72 -160.75,66.32 -61.46,61.67 -116.06,104.25 -10.68,8.33 2.24,0.18 -8.46,4.9 -14.38,6.35 -10.56,2.31 -13.78,3.03l-123.42 66.6c-15.23,10.46 -19.24,9.48 -26.42,29.27 -7.91,21.79 3.38,43.87 5.49,67.72 1.56,17.62 -10.61,35.96 -4.65,62.12 14.74,64.64 59.63,-33.42 53.58,40.25 -2.97,35.99 -14.68,40.95 -35.92,52.18 13.68,37.79 2.04,-6.35 15.73,31.45l-46.95 9.05c1.86,24.16 5.96,33.17 27.63,40.88 34.29,12.2 25.91,-28.6 27.2,28.69 -42.97,-3.57 -29.53,-22.41 -55.08,15.73 17.25,8.27 30.95,13.72 55.08,15.73 -5.68,15.65 -5.02,6.43 -10.11,14.15 -9.1,13.8 -10.86,26.3 -5.63,48.75 33.74,-9.01 19.35,-19.96 62.95,-23.59 -16.86,25.15 -12.92,5.51 -15.74,39.32 14.34,-7.11 9.84,-6.06 31.47,-7.87zm8740.67 -3834.3l-116.99 0 0 -434.53 116.99 0 0 434.53zm-250.7 0l-116.99 0 0 -434.54 116.99 0 0 434.54zm-250.69 -0.01l-116.99 0 0 -434.53 116.99 0 0 434.53zm-501.38 0l-116.99 0 0 -434.54 116.99 0 0 434.54zm1002.78 584.97l-116.99 0 0 -434.54 116.99 0 0 434.54zm-250.7 -0.01l-116.99 0 0 -434.53 116.99 0 0 434.53zm-250.69 0l-116.99 0 0 -434.54 116.99 0 0 434.54zm-501.38 -0.01l-116.99 0 0 -434.53 116.99 0 0 434.53zm1002.78 584.98l-116.99 0 0 -434.54 116.99 0 0 434.54zm-250.7 -0.01l-116.99 0 0 -434.53 116.99 0 0 434.53zm-250.69 0l-116.99 0 0 -434.54 116.99 0 0 434.54zm-501.38 -0.01l-116.99 0 0 -434.53 116.99 0 0 434.53zm1002.78 584.97l-116.99 0 0 -434.53 116.99 0 0 434.53zm-250.7 0l-116.99 0 0 -434.54 116.99 0 0 434.54zm-250.69 -0.01l-116.99 0 0 -434.53 116.99 0 0 434.53zm-501.38 0l-116.99 0 0 -434.54 116.99 0 0 434.54zm1002.78 584.97l-116.99 0 0 -434.54 116.99 0 0 434.54zm-250.7 -0.01l-116.99 0 0 -434.53 116.99 0 0 434.53zm-250.69 0l-116.99 0 0 -434.54 116.99 0 0 434.54zm-501.38 -0.01l-116.99 0 0 -434.53 116.99 0 0 434.53z"/>
  <path class="fil0" d="M9528.28 5220.74l0 -23.58 -140.4 -51.88c-0.24,-0.36 -0.67,-2.18 -1.23,-3.16 -46.92,10.92 -32.47,5.64 -51.85,27.64 -7.81,8.87 -7.11,3.37 -18.96,19.53 110.6,25.75 49.89,13.99 102.29,0 7.07,10.56 4.43,7.2 14.43,17.03l8.31 7.42c1.05,0.92 3.46,2.82 4.32,3.55 0.86,0.73 3,2.24 4.4,3.45 -33.11,0 -31.79,-3.3 -55.07,7.86 4.17,17.93 6.09,18.08 7.86,39.31 42.64,-17.2 -31.9,23.6 8.91,-7.64 4.63,-3.54 23.62,-49.73 46.17,46.95 -49.29,-23.62 -51.32,6.73 -102.29,7.86 8.18,-35.11 4.97,-59.1 -15.74,-102.21l-17.24 18.97c-4.25,31.13 8.02,-5.1 -22.1,51.78l13.27 10.35c30.2,22.39 3.24,-10.04 26.08,21.11l-55.07 0c21.4,29.18 29.81,10.06 38.11,48.92 4.37,20.48 18.3,21.44 -6.64,29.71 -7.08,18.38 10.22,20.6 -30.49,8.92 -36.95,-10.6 -7.95,-13.44 -48.19,-16.8 -0.91,40.42 7.12,22.59 -15.74,39.32 -5.9,-22.09 7.03,3.33 -5.18,-10.55 -10.12,-11.51 -1.04,-3.64 -12.21,-11.39 -1.89,-1.31 -8.31,-4.2 -10.38,-5.36l-15.21 -8.39c-32.31,-17.02 -31.07,-11.5 -75.05,-11.5 16.85,-25.15 12.92,-5.51 15.73,-39.31 -26.43,-13.98 -14.65,-0.64 -31.47,-23.58 -24.44,16.34 -29.46,23.91 -62.94,7.85 1.02,46.15 27.09,67.67 37.61,111.81 11.7,49.08 9.6,89.23 9.6,147.66l7152.11 7.86 0 -2720.45 -786.81 0c0,-105.61 -22.94,-224.95 1.52,-313.69 12.58,-45.65 0.87,-1.54 -8.04,-48.86 -5.4,-28.63 -1.36,-106.9 -1.36,-140.66l-7.86 0c0,191.96 -17.46,143.57 -19.24,173.11 -0.84,13.8 9.44,19.94 11.62,54.53 5.29,83.85 -0.25,189.28 -0.25,275.56 -353.66,0 -340.31,-28.89 -338.61,70.49l0.28 700.04c0,372.17 0,744.33 0,1116.49l-23.6 0 0 -636.87 -267.52 0 -15.73 0c-86.52,0 -173.43,-0.8 -259.89,0.25 -97.95,1.19 -83.47,-35.67 -172.82,-94.63 -105.22,-69.43 -229.07,-123.36 -369.73,-157.32 -159.57,-38.52 -311.31,-46.86 -480.07,-47.07 -91.88,-0.11 -168.97,9.86 -245.1,22.41 -77.76,12.81 -144.18,42.13 -219.11,48.36 0,-38.21 5.9,-88.05 -5.25,-120.55 -12.09,-35.32 -30.1,-43.83 -34.09,-91.73 -18.23,4.86 -8.06,-1 -18.93,12.52l-12.53 -75.43 -31.47 0c0,-109.58 -36.52,-283.56 -52.72,-395.48 -9.82,-67.81 -17.11,-127.48 -26.4,-193.78 -4.27,-30.59 -9.08,-67.24 -14.2,-95.94 -3.13,-17.57 -8.34,-37.84 -8.86,-48 -1.83,-35.68 -3.42,-30.14 23.5,-37.33 -17.71,-24.17 5.07,-12.69 -31.47,-15.73 0,-63.65 18.46,-28.22 15.93,-78.11 -2.31,-45.63 -1.84,-5.38 -11.4,-36.37 -6.53,-21.18 -4.53,-26.88 -4.53,-50.63l0 -55.04c-64.71,17.27 25.09,39.31 -62.95,39.31l39.34 15.73c0,40.69 -7.25,51.82 -13.7,81.71 -10.25,47.5 13.7,22.35 13.7,83.4l-23.6 15.73c32.82,13.24 16.17,33.85 8.34,86.93 -29.05,196.67 -57.51,468.12 -90.58,648.6 -8.31,45.34 5.62,31.34 -27.92,35l0 117.94c-19.21,-22.09 -15.74,-16.44 -15.74,-55.03l-23.6 0c-1.3,58.42 -32.02,54.66 -31.77,141.22 0.23,75.03 8.7,196.79 1.1,268.43 -4.32,40.73 -16.56,31.92 -63.28,31.11 -60.44,-1.06 -120.97,-0.46 -181.43,-0.46l0 -188.69 -31.47 0 0 -1894.89 -125.9 0c0,-462.78 41.64,-400.98 -125.89,-400.98 0,-63.37 9.48,-124.02 -16.86,-164l-152.91 -216.74c-33.57,-46.37 -59.27,-66.04 -58.79,-129.95 0.22,-27.7 1.9,-59.61 0.43,-86.91 -1.93,-35.59 -8.12,-42.97 -8.18,-86.18l0.9 -142.42c-4.33,-62.43 -26.13,-4.14 -24.38,-109.31 0.59,-35.44 0.49,-57.62 -4.4,-89.95 -8.88,-58.65 -3.32,-124.67 -3.32,-185.38 -33.22,24.33 -12.63,122.23 -16.14,164.7 -3.2,38.52 -4.16,155.7 -17.68,186.76 -29.75,68.3 -12.14,179.06 -13.07,254.27 -0.41,32.38 -6.66,141.61 -18.94,161.9l-196.35 275.54c-31.8,41.33 -21.06,112.34 -21.06,167.66l-118.02 0 0 400.98c-174.72,0 -133.76,-58.9 -133.76,369.54l0 1525.34 -31.47 0 0 259.46 -62.95 0 0 -1706.17 -78.69 0 0 -267.33 -39.33 0 0 -94.35 -141.62 0c0,-127.66 27.1,-117.94 -94.42,-117.94l0 -31.45 -86.55 0 0 31.45 -94.42 0 0 212.29c-93.44,0 -62.95,14.78 -62.95,267.33l-47.21 0 0 1706.17c-18.85,7.6 -16.52,22.95 -16.61,46.31 -0.08,20.78 0.87,42.65 0.87,63.77l-7.86 0c0,-107.49 12.11,-1790.15 -7,-1809.25 -16.46,-16.45 -535.47,-6.99 -606.7,-6.99l0 235.87 -731.75 0 0 70.76 55.08 0 0 1800.53c37.93,3.16 25.02,12.56 62.95,15.72l0 -1611.82 23.6 0 0 1627.54c44.74,10.42 27.21,21.91 62.94,31.45l15.74 -1658.99c0,290.91 0,581.82 0,872.74 0,296.25 -7.86,575.87 -7.86,864.88 67,5.57 20.8,5.61 78.68,-7.86 -0.88,1.67 -2.64,2.16 -3.11,4.75 -0.47,2.59 -2.52,3.74 -3.16,4.71l-14.04 25.3c-3.64,11.52 -2.99,6.38 -3.3,20.29 32.93,-3.61 5.89,-3.63 39.34,-15.73 0,48.19 6.42,61.88 -39.34,62.9 4.82,57.8 48.4,24.82 15.74,86.49 40.24,-3.34 10.65,-5.98 47.21,-15.73 13.8,20.61 3.98,16.25 31.47,23.58 0,46.59 -12.09,61.25 23.6,70.77 -15.29,22.83 -15.92,10.55 -23.6,39.31 -34.97,0 -45.9,-4.09 -70.81,7.85 8.42,23.23 -3.9,12.08 25.2,22 21.73,7.41 16.21,-1.04 43.28,12.21 41,20.07 20.61,28.73 65.28,5.1 1.54,69.33 14.07,-5.84 23.15,63.36 6.5,49.53 -6.78,35.65 24.06,62.44 -54.32,0 -49.52,-3.85 -86.55,15.72zm95.02 -2018.78l-87.74 0 0 -225.62 87.74 0 0 225.62zm0 334.26l-87.74 0 0 -225.62 87.74 0 0 225.62zm0 334.26l-87.74 0 0 -225.62 87.74 0 0 225.62zm0 334.26l-87.74 0 0 -225.62 87.74 0 0 225.62zm208.92 -1002.77l-87.75 0 0 -225.62 87.75 0 0 225.62zm0 334.26l-87.75 0 0 -225.62 87.75 0 0 225.62zm0 334.26l-87.75 0 0 -225.62 87.75 0 0 225.62zm0 334.26l-87.75 0 0 -225.62 87.75 0 0 225.62zm288.14 -1424.82l-133.69 0 0 -133.7 133.69 0 0 133.7zm0.03 208.92l-133.7 0 0 -133.69 133.7 0 0 133.69zm0.02 208.92l-133.69 0 0 -133.7 133.69 0 0 133.7zm0.03 208.92l-133.7 0 0 -133.69 133.7 0 0 133.69zm0.02 208.92l-133.69 0 0 -133.7 133.69 0 0 133.7zm0.03 208.92l-133.7 0 0 -133.7 133.7 0 0 133.7zm0.02 208.92l-133.69 0 0 -133.7 133.69 0 0 133.7zm0.03 208.92l-133.7 0 0 -133.7 133.7 0 0 133.7zm166.95 -1462.44l-133.7 0 0 -133.69 133.7 0 0 133.69zm0.02 208.92l-133.69 0 0 -133.7 133.69 0 0 133.7zm0.03 208.92l-133.7 0 0 -133.69 133.7 0 0 133.69zm0.02 208.92l-133.69 0 0 -133.7 133.69 0 0 133.7zm0.03 208.92l-133.7 0 0 -133.69 133.7 0 0 133.69zm0.02 208.92l-133.69 0 0 -133.7 133.69 0 0 133.7zm0.03 208.92l-133.7 0 0 -133.7 133.7 0 0 133.7zm0.02 208.92l-133.69 0 0 -133.69 133.69 0 0 133.69zm166.95 -1462.44l-133.7 0 0 -133.7 133.7 0 0 133.7zm0.02 208.92l-133.69 0 0 -133.69 133.69 0 0 133.69zm0.03 208.92l-133.7 0 0 -133.7 133.7 0 0 133.7zm0.02 208.92l-133.69 0 0 -133.69 133.69 0 0 133.69zm0.03 208.92l-133.7 0 0 -133.7 133.7 0 0 133.7zm0.02 208.92l-133.69 0 0 -133.7 133.69 0 0 133.7zm0.03 208.92l-133.7 0 0 -133.7 133.7 0 0 133.7zm0.02 208.92l-133.69 0 0 -133.7 133.69 0 0 133.7zm246.53 -1299.42l-62.67 0 0 -254.88 62.67 0 0 254.88zm0 376.03l-62.68 0 0 -254.87 62.68 0 0 254.87zm-0.01 376.04l-62.67 0 0 -254.88 62.67 0 0 254.88zm0 376.04l-62.68 0 0 -254.88 62.68 0 0 254.88zm167.14 -1128.12l-62.67 0 0 -254.88 62.67 0 0 254.88zm0 376.03l-62.68 0 0 -254.87 62.68 0 0 254.87zm-0.01 376.04l-62.67 0 0 -254.88 62.67 0 0 254.88zm0 376.04l-62.68 0 0 -254.88 62.68 0 0 254.88zm167.15 -1128.12l-62.68 0 0 -254.88 62.68 0 0 254.88zm-0.01 376.03l-62.67 0 0 -254.87 62.67 0 0 254.87zm0 376.04l-62.68 0 0 -254.88 62.68 0 0 254.88zm-0.01 376.04l-62.67 0 0 -254.88 62.67 0 0 254.88zm1002.77 -1896.91l108.64 0 0 284.12 -108.64 0 0 -284.12zm0 376.03l108.64 0 0 284.13 -108.64 0 0 -284.13zm0 376.04l108.64 0 0 284.12 -108.64 0 0 -284.12zm0 376.04l108.64 0 0 284.12 -108.64 0 0 -284.12zm0 376.03l108.64 0 0 284.13 -108.64 0 0 -284.13zm-208.91 -1504.15l108.63 0 0 284.12 -108.63 0 0 -284.12zm0 376.03l108.63 0 0 284.13 -108.63 0 0 -284.13zm0 376.04l108.63 0 0 284.12 -108.63 0 0 -284.12zm0 376.04l108.63 0 0 284.12 -108.63 0 0 -284.12zm0 376.03l108.63 0 0 284.13 -108.63 0 0 -284.13zm-208.92 -1504.15l108.64 0 0 284.12 -108.64 0 0 -284.12zm0 376.03l108.64 0 0 284.13 -108.64 0 0 -284.13zm0 376.04l108.64 0 0 284.12 -108.64 0 0 -284.12zm0 376.04l108.64 0 0 284.12 -108.64 0 0 -284.12zm0 376.03l108.64 0 0 284.13 -108.64 0 0 -284.13zm-208.91 -1504.15l108.63 0 0 284.12 -108.63 0 0 -284.12zm0 376.03l108.63 0 0 284.13 -108.63 0 0 -284.13zm0 376.04l108.63 0 0 284.12 -108.63 0 0 -284.12zm0 376.04l108.63 0 0 284.12 -108.63 0 0 -284.12zm0 376.03l108.63 0 0 284.13 -108.63 0 0 -284.13zm4621.16 -196.38l104.46 0 0 238.16 -104.46 0 0 -238.16zm-0.02 334.27l104.46 0 0 238.16 -104.46 0 0 -238.16zm-0.01 334.26l104.46 0 0 238.16 -104.46 0 0 -238.16zm-0.02 334.27l104.46 0 0 238.16 -104.46 0 0 -238.16zm-208.87 -1002.79l104.46 0 0 238.16 -104.46 0 0 -238.16zm-0.02 334.27l104.46 0 0 238.16 -104.46 0 0 -238.16zm-0.01 334.26l104.46 0 0 238.16 -104.46 0 0 -238.16zm-0.02 334.27l104.46 0 0 238.16 -104.46 0 0 -238.16zm-208.87 -1002.79l104.46 0 0 238.16 -104.46 0 0 -238.16zm-0.02 334.27l104.46 0 0 238.16 -104.46 0 0 -238.16zm-0.01 334.26l104.46 0 0 238.16 -104.46 0 0 -238.16zm-0.02 334.27l104.46 0 0 238.16 -104.46 0 0 -238.16zm-208.87 -1002.79l104.46 0 0 238.16 -104.46 0 0 -238.16zm-0.02 334.27l104.46 0 0 238.16 -104.46 0 0 -238.16zm-0.01 334.26l104.46 0 0 238.16 -104.46 0 0 -238.16zm-0.02 334.27l104.46 0 0 238.16 -104.46 0 0 -238.16zm-208.87 -1002.79l104.46 0 0 238.16 -104.46 0 0 -238.16zm-0.02 334.27l104.46 0 0 238.16 -104.46 0 0 -238.16zm-0.01 334.26l104.46 0 0 238.16 -104.46 0 0 -238.16zm-0.02 334.27l104.46 0 0 238.16 -104.46 0 0 -238.16zm835.72 -1337.04l104.46 0 0 238.16 -104.46 0 0 -238.16zm-208.92 0l104.46 0 0 238.16 -104.46 0 0 -238.16zm-208.92 0l104.46 0 0 238.16 -104.46 0 0 -238.16zm-208.92 0l104.46 0 0 238.16 -104.46 0 0 -238.16zm-208.92 0l104.46 0 0 238.16 -104.46 0 0 -238.16z"/>
  <path class="fil0" d="M7734.36 102.21l291.65 636.34c11.62,28.07 0.95,23.97 30.93,31.98l98.97 -192.03c38.22,-63.77 66.36,-130.18 103.08,-195.76l207.09 -382.75 -731.73 102.21z"/>
  <path class="fil0" d="M1809.67 3207.92l574.36 0c-12.04,-16.42 -114.49,-86.34 -140.06,-103.77 -33.37,-22.73 -120.27,-92.44 -151.05,-100.66 -47.44,31.74 -95.84,66.34 -142.82,101.02 -23.9,17.65 -44.53,31.91 -68.43,49.55l-72 53.85z"/>
  <path class="fil0" d="M5248.03 3498.85c0,47.91 -14.71,71.92 -23.6,110.07 155.35,-22.8 92.31,33.1 220.3,62.9 0,-58.15 -29.98,-103.31 -7.86,-149.38 -84.45,-7.02 -123.65,-51.93 -204.57,-70.76 5.04,21.6 15.74,31.95 15.74,47.18z"/>
  <path class="fil0" d="M3304.6 5291.5l-23.6 0c0.8,35.47 8.92,41.54 15.74,70.77 32.3,-8.63 35.64,-46.22 31.9,-70.34 -4.89,-31.5 5.85,-12.2 15.3,-47.6 -20.82,-5.52 -6.47,0.62 -23.6,-7.86l-1.69 7.2c-14.64,51.41 -10.04,-0.25 -14.05,47.83z"/>
  <path class="fil0" d="M9095.54 5189.29l-9.06 46.92 24.79 0.26c3,-35.96 9.63,-38.47 47.21,-39.31 -0.83,-37.28 0.32,-31.17 -23.6,-47.18 -59.95,40.12 21.04,34.04 -39.33,39.31z"/>
  <path class="fil0" d="M9292.24 5236.47c0,-61.78 -9.84,-39.09 0,-62.9 -16.82,1.83 -6.12,-1.56 -19.01,4.87 -21.22,10.61 -20.98,17.79 -27.5,38.12 -1.18,3.67 -23.47,11.61 1.71,24.1 14.99,7.44 19.63,-2.09 44.8,-4.18z"/>
  <path class="fil0" d="M9134.87 4953.42c22.06,5.27 43.11,22.06 70.81,-15.73 -10.54,-15.74 -9.92,-24.96 -36.42,-21.58 -25.86,3.3 -32.17,10.61 -34.4,37.31z"/>
  <path class="fil0" d="M9127.01 4851.21c2.43,1.37 96.43,38.78 55.07,-39.31 -34.86,8.11 -46.05,5.54 -55.07,39.31z"/>
  <path class="fil0" d="M9032.59 4678.23c2.89,34.63 7.86,19.18 7.86,78.62 50.39,-4.18 32.07,-45.28 7.87,-55.03 7.28,-5.06 17.94,-5.12 31.47,-23.58 -22.93,-5.34 -24.44,-8.83 -47.21,0z"/>
  <path class="fil0" d="M9213.56 5346.55c8.54,6.25 30.9,33.53 45.78,26.93 19.89,-8.83 -0.61,-46.23 -6.44,-58.38 -21.88,10.49 -15.24,7.85 -47.22,7.85 5.96,10.6 4.3,8.7 7.87,23.59z"/>
  <path class="fil0" d="M9276.51 5071.35c9.69,14.46 13.18,20.75 39.13,32.43 21.17,9.51 19.2,5.02 31.68,-0.98 -6.38,-23.88 3.8,-6.13 -13.22,-26.09 -19.84,-23.27 -32.75,-29.63 -57.59,-5.36z"/>
  <path class="fil0" d="M9040.46 4890.51c39.15,-10.44 41.64,-18.45 47.21,-39.3 -82.57,19.75 -54.57,-38.63 -67.74,2.4 -8.4,26.17 -2.75,3.1 7.11,17.6 17.71,26.07 0.55,-16.2 13.41,19.3z"/>
  <path class="fil0" d="M8828.02 5307.23c30.57,2.54 20.5,7.09 55.07,7.86 -0.69,-31.38 -3.63,-29.11 -15.73,-47.18 -25.62,6.84 -32.51,13.71 -39.34,39.31z"/>
  <path class="fil0" d="M9174.22 5189.29c60.73,-6.64 -22.64,-9.76 62.95,-7.86 -0.92,-40.94 -16.52,-47.03 -43.3,-28.41l-19.65 36.28z"/>
  <path class="fil0" d="M3249.53 4921.96c-24.44,15.49 -43.22,6.59 -55.07,39.32 70.42,-16.4 68.34,-17.52 70.81,-47.18l-15.74 7.85z"/>
  <path class="fil0" d="M9134.87 5354.4l39.34 0c-16.86,-25.14 -12.92,-5.5 -15.74,-39.3l-23.6 0 0 39.3z"/>
  <path class="fil0" d="M9095.54 5079.21c0.07,-0.03 10.12,3.19 22.97,-16.35 9.39,-14.3 6.69,-9.03 8.5,-30.82 -29.82,7.95 -41.2,23.63 -31.47,47.17z"/>
  <path class="fil0" d="M8765.07 5181.43c17.94,-4.17 18.09,-6.09 39.34,-7.85 -2.83,-11.8 -1.73,-23.59 -15.74,-23.59 -22.4,0 -23.6,9.11 -23.6,31.45z"/>
  <path class="fil0" d="M9016.85 5039.9c-7.12,14.36 -6.02,9.84 -7.86,31.45 27.42,-7.31 28.81,-7.25 31.47,-39.3l-15.73 0 -7.87 7.85z"/>
  <path class="fil0" d="M9008.99 5228.6c10.02,-20.87 7.18,-8.42 7.86,-39.31 -16.1,4.29 -22.16,1.55 -27.4,20.44 -4.66,16.81 2.7,14.38 19.54,18.88z"/>
  <path class="fil0" d="M8796.55 5252.19c4.43,16.59 -8.14,19.3 12.92,19.15l26.41 -11.29c-16.75,-29.8 -38.08,-9.4 -39.33,-7.86z"/>
  <path class="fil0" d="M9284.37 5385.85c7,-3.93 15.73,-5.11 15.73,-15.72 0,-30.06 2.41,-2.86 -7.86,-23.58 -25.56,18.72 -16.22,3.47 -7.86,39.3z"/>
  <path class="fil0" d="M9016.85 5039.9l7.87 -7.85 0 -23.59c-20.06,13.42 -24.57,13.47 -31.48,39.31 10.61,-5.96 8.7,-4.29 23.6,-7.86z"/>
  <path class="fil0" d="M8780.81 4914.1c17.94,4.17 18.09,6.09 39.34,7.85 -13.68,-20.4 -8,-20.97 -39.34,-23.58l0 15.73z"/>
  <path class="fil0" d="M3391.15 5102.8l0 -7.85c-31.97,0 -25.34,2.62 -47.21,-7.86 4.67,42.62 -3.9,15.72 47.21,15.72z"/>
  <path class="fil0" d="M3422.62 5102.8c27.21,-7.25 24.22,-4.26 31.48,-31.45l-18.34 9.72c-15.04,7.53 -9.58,-18.92 -13.14,21.72z"/>
  <polygon class="fil0" points="9134.87,4717.53 9166.35,4717.53 9166.35,4701.82 9134.87,4701.82 "/>
  <path class="fil0" d="M8930.3 5267.92c-0.89,-40.41 7.13,-22.58 -15.73,-39.31 0.9,40.41 -7.12,22.58 15.73,39.31z"/>
  <path class="fil0" d="M9292.24 5291.5c-7.78,-21.48 0.42,-16.16 -31.47,-23.58 7.78,21.49 -0.42,16.16 31.47,23.58z"/>
  <path class="fil0" d="M2974.15 4906.24l31.47 0c-3.96,-14.81 9.03,-22.97 -12.35,-18.57l-19.12 18.57z"/>
  <path class="fil0" d="M8717.87 5299.37c30.76,-2.56 23.9,4.76 31.48,-23.58 -25.69,13.58 -15.52,0.64 -31.48,23.58z"/>
  <polygon class="fil0" points="9331.58,4725.4 9347.31,4725.4 9347.31,4701.82 9331.58,4701.82 "/>
  <polygon class="fil0" points="8953.91,5181.43 8969.65,5181.43 8969.65,5157.84 8953.91,5157.84 "/>
  <polygon class="fil0" points="9205.69,4859.06 9229.3,4859.06 9229.3,4843.34 9205.69,4843.34 "/>
  <polygon class="fil0" points="8749.34,5063.49 8765.07,5063.49 8765.07,5039.9 8749.34,5039.9 "/>
  <path class="fil0" d="M8883.09 5055.63l0 -15.73 -31.47 0c5.99,5.2 2.21,5.23 13.27,10.34 16.49,7.61 3.88,1.96 18.2,5.39z"/>
  <path class="fil0" d="M8788.68 5008.45l23.61 0 0 -15.72c-13.8,3.3 -21.09,0.99 -23.61,15.72z"/>
  <path class="fil0" d="M9284.37 4756.85l23.6 0c-12.09,-17.37 -1.3,-9.77 -23.6,-15.72l0 15.72z"/>
  <path class="fil0" d="M9252.9 5024.18l0 -15.73 -23.6 0c12.4,17.84 1.47,9.19 23.6,15.73z"/>
  <path class="fil0" d="M9213.56 5346.55c-11.44,-6.42 -8.33,-3.82 -23.6,-7.86 5.96,10.6 4.29,8.7 7.86,23.59l15.74 -15.73z"/>
  <path class="fil0" d="M8796.55 5094.94l-23.6 0c17.65,24.42 5.96,24.42 23.6,0z"/>
  <polygon class="fil0" points="9410.26,5149.98 9433.86,5149.98 9433.86,5142.12 9410.26,5142.12 "/>
  <path class="fil0" d="M3312.48 5118.53l23.6 0 0 -7.85c-41.6,0 -11.73,0.05 -23.6,7.85z"/>
  <path class="fil0" d="M2997.75 5110.67c11.44,6.41 8.33,3.81 23.6,7.85 -3.97,-5.41 1.47,-8.77 -10.91,-11.53 -16.1,-3.57 -3.35,-1.77 -12.69,3.67z"/>
  <path class="fil0" d="M3273.13 5118.53c-19.22,5.09 -10.63,-3.48 -15.74,15.73 20.45,-5.42 8.78,2.91 15.74,-15.73z"/>
  <path class="fil0" d="M2997.75 4646.78c8.08,8.07 28.46,-11.32 9.13,-4.24 -0.2,0.07 -22.34,-8.96 -9.13,4.24z"/>
  <path class="fil0" d="M9229.3 5307.23c8.07,8.07 28.45,-11.32 9.12,-4.24 -0.19,0.07 -22.34,-8.95 -9.12,4.24z"/>
  <path class="fil0" d="M3674.4 4882.65c8.08,8.07 28.46,-11.32 9.13,-4.24 -0.19,0.07 -22.34,-8.95 -9.13,4.24z"/>
  <path class="fil0" d="M9134.87 5126.39c8.08,8.08 28.46,-11.32 9.13,-4.24 -0.19,0.07 -22.34,-8.95 -9.13,4.24z"/>
  <path class="fil0" d="M8812.29 5102.8c8.07,8.08 28.45,-11.31 9.12,-4.23 -0.2,0.07 -22.34,-8.95 -9.12,4.23z"/>
  <path class="fil0" d="M9040.46 4929.83c0,9.24 16.93,17.71 12.19,0 -4.77,-17.77 20.01,-0.22 -3.64,-2.33 -9.91,-0.89 -8.55,-13.65 -8.55,2.33z"/>
  <path class="fil0" d="M9189.96 5126.39c0,9.24 16.93,17.72 12.18,0 -4.77,-17.77 20.01,-0.22 -3.63,-2.33 -9.91,-0.88 -8.55,-13.65 -8.55,2.33z"/>
  <path class="fil0" d="M8875.23 4819.75c0,9.25 16.93,17.72 12.18,0 -4.76,-17.76 20.02,-0.21 -3.63,-2.32 -9.91,-0.89 -8.55,-13.65 -8.55,2.32z"/>
  <path class="fil0" d="M9040.46 4819.75c0,9.25 16.93,17.72 12.19,0 -4.77,-17.76 20.01,-0.21 -3.64,-2.32 -9.91,-0.89 -8.55,-13.65 -8.55,2.32z"/>
  <path class="fil0" d="M3210.19 5330.82l-15.32 -8.54c3.43,10.97 -5.47,7.46 4.27,10.66 15.21,5.03 0.45,3.86 11.05,-2.13z"/>
  <path class="fil0" d="M8828.02 5047.76c0,19.54 12.58,2.01 4.88,0 -0.09,-0.03 -4.88,-22.31 -4.88,0z"/>
  <path class="fil0" d="M3013.49 4890.51c0,19.54 12.58,2.02 4.88,0 -0.1,-0.02 -4.88,-22.3 -4.88,0z"/>
  <path class="fil0" d="M3540.65 5039.9c0,19.54 12.57,2.02 4.88,0 -0.1,-0.02 -4.88,-22.31 -4.88,0z"/>
  <path class="fil0" d="M3155.11 5362.27c19.22,-5.1 10.63,3.48 15.74,-15.73l-15.74 15.73z"/>
  <polygon class="fil0" points="3548.52,5063.49 3540.65,5063.49 3547.2,5072.66 "/>
  <polygon class="fil0" points="3674.4,5244.33 3674.4,5236.47 3665.22,5243.02 "/>
  <polygon class="fil0" points="8694.26,5236.47 8694.26,5244.33 8703.44,5237.77 "/>
  <polygon class="fil0" points="3162.98,4937.69 3162.98,4929.83 3153.81,4936.38 "/>
  <polygon class="fil0" points="3249.53,4921.96 3249.53,4914.1 3240.35,4920.65 "/>
  <polygon class="fil0" points="3162.98,4937.69 3162.98,4945.55 3172.16,4939 "/>
  <path class="fil0" d="M3233.79 5118.53l2.35 -2.34c-0.16,0.16 -3.14,1.56 -2.35,2.34z"/>
  <path class="fil0" d="M3186.58 4937.69l2.35 -2.34c-0.16,0.16 -3.14,1.56 -2.35,2.34z"/>
  <path class="fil0" d="M3210.19 4914.1l2.35 -2.34c-0.16,0.15 -3.14,1.56 -2.35,2.34z"/>
  <path class="fil0" d="M3399.02 5094.94l2.35 -2.34c-0.16,0.15 -3.14,1.56 -2.35,2.34z"/>
  <path class="fil0" d="M3674.4 4866.93l2.35 -2.34c-0.16,0.16 -3.13,1.56 -2.35,2.34z"/>
  <path class="fil0" d="M3383.29 5087.08l2.34 -2.34c-0.15,0.16 -3.13,1.56 -2.34,2.34z"/>
  <path class="fil0" d="M3383.29 5299.37l2.34 -2.34c-0.15,0.16 -3.13,1.56 -2.34,2.34z"/>
  <path class="fil0" d="M3304.6 4835.48l2.35 -2.34c-0.16,0.16 -3.14,1.56 -2.35,2.34z"/>
  <path class="fil0" d="M3509.18 5299.37l2.35 -2.34c-0.16,0.16 -3.14,1.56 -2.35,2.34z"/>
  <path class="fil0" d="M3044.96 5252.19l2.35 -2.34c-0.16,0.16 -3.14,1.57 -2.35,2.34z"/>
  <path class="fil0" d="M3406.89 4827.61l2.34 -2.33c-0.15,0.15 -3.13,1.55 -2.34,2.33z"/>
  <path class="fil0" d="M3682.28 4780.44l2.34 -2.34c-0.16,0.15 -3.13,1.56 -2.34,2.34z"/>
  <path class="fil0" d="M3619.33 5039.9l2.34 -2.34c-0.15,0.16 -3.13,1.56 -2.34,2.34z"/>
  <path class="fil0" d="M3635.07 4811.89l2.34 -2.34c-0.15,0.15 -3.13,1.56 -2.34,2.34z"/>
  <path class="fil0" d="M2950.54 5094.94l2.34 -2.34c-0.15,0.15 -3.13,1.56 -2.34,2.34z"/>
  <path class="fil0" d="M9394.53 4827.61c-0.51,0.51 -0.22,1.43 -0.17,2.18l0.17 -2.18z"/>
  <polygon class="fil0" points="3674.4,5205.02 3657.49,5209.34 "/>
  <polygon class="fil0" points="3273.13,5118.53 3290.05,5114.2 "/>
  <polygon class="fil0" points="3312.48,5118.53 3303.43,5133.86 "/>
  <polygon class="fil0" points="2950.54,4898.37 2942.68,4898.37 "/>
  <line class="fil0" x1="3281" y1="4945.55" x2="3281" y2= "4945.55" />
  <g id="_2361815736848">
   <path class="fil2 str0" d="M3192.6 5753.38c-4.23,-3.35 -3.72,-41.54 -0.68,-67.95l-7.19 0c-0.41,2.34 -0.77,4.8 -1.09,7.4 -2.81,23.1 -3.22,52.78 -3.31,60.42 -0.81,0 -35.03,-0.97 -35.57,-1.39 -6.14,-4.88 11.74,-83.63 18.81,-92.83 8.76,-11.42 25.53,-19.95 26.42,-6.34 0.21,3.2 -0.07,6.43 -0.6,9.84l7.18 0c0.27,-0.55 0.54,-1.04 0.82,-1.39 8.75,-11.41 29.76,-11.5 30.64,2.12 0.71,10.95 12.73,-7.51 26.42,4.22 17.58,15.07 15.53,70.57 6.34,81.37 -10.29,12.08 -33.02,3.51 -33.06,6.22 -0.8,0 -34.59,-1.25 -35.12,-1.67z"/>
   <ellipse class="fil3" cx="3681.81" cy="6270.94" rx="1098.53" ry="20.87"/>
   <path class="fil4" d="M3864.74 6201.73l586.23 2.32 9.3 -16.19 50.64 0.39 95.32 -15.85c0.77,-3.11 1.18,-6.34 1.18,-9.67l0.03 -247.65 -783 0c223.39,36.86 -228.78,285.57 40.3,286.64z"/>
   <path class="fil4" d="M2816.99 6166.56l307.48 33.95 58.78 0.53 65.64 1.64 117.57 -34.52c-123.43,-92.09 -234.58,-346.25 -586.57,-291.54 207.2,52.58 -168.91,237.22 -9.47,283.4 12.07,3.49 26.69,1.61 45.41,2.13 0.6,0.01 0.55,4.34 1.17,4.4z"/>
   <g>
    <circle class="fil2" cx="4311.19" cy="6123.54" r="166.69"/>
    <circle class="fil4" cx="4311.19" cy="6123.54" r="130.26"/>
    <circle class="fil5" cx="4311.19" cy="6123.54" r="99.29"/>
    <circle class="fil6" cx="4311.19" cy="6123.54" r="52.84"/>
   </g>
   <g>
    <circle class="fil2" cx="2977.57" cy="6121.67" r="166.69"/>
    <circle class="fil4" cx="2977.57" cy="6121.67" r="130.26"/>
    <circle class="fil5" cx="2977.57" cy="6121.67" r="99.29"/>
    <circle class="fil6" cx="2977.57" cy="6121.67" r="52.84"/>
   </g>
   <path class="fil7" d="M4108.29 6203.04c-1.06,-33.81 -0.69,-62.62 0,-84.53 3.62,-114.59 107.47,-198.07 216.63,-190.22 58.26,4.18 122.86,31.45 163.8,100.39 30.85,51.95 22.73,149.1 22.19,159.57 -0.04,0.72 99.66,-2.12 100.39,-2.12 20.75,0.21 61.63,-19.85 65.52,-45.44 0.93,-6.13 -13.7,-12 -13.74,-19.02 -0.02,-4.32 12.13,-21.45 21.14,-41.21 9.13,-20.02 15.13,-42.71 14.79,-47.55 -1.98,-28.72 -30,-56.31 -46.5,-82.43 -15.65,-24.79 -19.18,-48.4 -43.33,-65.52 -44.48,-31.54 -166.57,-53.76 -225.09,-63.4 -233.32,-38.48 -253.78,-41.98 -396.27,-47.55 -10.03,-0.4 -16.19,-15.49 -27.48,-16.91 -13.79,-1.73 -26.8,6.69 -41.85,0.24 -38.71,-16.61 -181.05,-113.58 -272.01,-153.47 -57.08,-25.04 -127.92,18.14 -116.3,32.94 71.02,27.13 125.69,60.65 186.05,107.6 -16.91,12.46 -29.24,31.75 -28.88,51.3l-377.97 -27 -12.35 -16.68c-408.81,-13.88 -600.85,-33.35 -656.58,18.8 -43.06,40.27 -41.69,77.28 -32.76,175.42 1.1,12.02 -32.31,30.7 -28.44,45.54 38.87,149.11 69.3,139.82 185.9,167.93 28.98,6.98 -3.63,-66.75 31.7,-126.82 83.01,-141.15 299.5,-145.88 365.64,13.74 27.84,67.16 -12.24,154.85 24.31,155.35 342.31,4.62 769.48,-3.7 921.49,1.05zm125.47 -716.54l0 -2.6 -2.82 0 2.82 2.6z"/>
   <path class="fil2 str0" d="M3654.89 5793.4c-7.84,-6.13 26.1,-71.81 42.33,-57.44 1.71,1.51 -14.59,9.93 -22.19,41.21 -1.58,6.49 1.19,15.08 1.19,17.75 -0.8,0 -20.77,-1.1 -21.33,-1.52z"/>
   <path class="fil8" d="M3290.37 6112.16c187.07,0 395.14,1.66 580.15,12.68 26.42,-101.45 52.84,-193.39 -6.33,-285.33 -1.74,-2.7 -594.5,-58.48 -657.43,-61.51 -10.74,-0.52 -17.61,2.85 -19.95,5.5 -62.24,70.77 64.02,260.03 103.57,328.66z"/>
   <path class="fil2 str0" d="M4699.02 6068.83l-39.12 0c-0.49,-26.63 -19.94,-48.62 -45.43,-53.07l0 -18.79 84.54 0 0 71.86z"/>
   <g>
    <rect class="fil2 str0" x="4543.67" y="5915.61" width="85.6" height="66.58" rx="8.45" ry="8.45"/>
    <rect class="fil9 str0" x="4554.24" y="5925.12" width="34.87" height="33.82"/>
   </g>
   <path class="fil2 str0" d="M4676.83 6120.42l-168.03 0 0 67.31 120.8 0c25.98,0 47.23,-21.25 47.23,-47.23l0 -20.08z"/>
   <rect class="fil2 str0" x="3248.62" y="5865.41" width="98.28" height="24.31" rx="14.79" ry="14.79"/>
   <rect class="fil2 str0" x="2889.19" y="5806.76" width="98.28" height="56.01" rx="14.79" ry="34.09"/>
   <g>
    <rect class="fil2 str0" x="3734.49" y="5793.89" width="66.99" height="24.85" rx="10.08" ry="15.13"/>
    <rect class="fil2 str0" x="3764.38" y="5700.97" width="46.1" height="81.48"/>
    <rect class="fil2 str0" x="3780.95" y="5778.77" width="12.14" height="23.77"/>
   </g>
  </g>
  <g id="_2362062283296">
   <ellipse class="fil3" cx="13677.94" cy="5893.99" rx="1191.58" ry="19.1"/>
   <path class="fil4" d="M14884.49 5723.56l-174.52 0 0 31.91 172.64 0c9.29,0 16.89,-7.6 16.89,-16.89l0 -0.02c0,-8.26 -6.75,-15.01 -15.01,-15.01z"/>
   <path class="fil4" d="M14618.11 5712.92l-99.6 0 0 35.74c0,9.33 7.63,16.96 16.96,16.96l65.69 0c9.33,0 16.96,-7.63 16.96,-16.96l0 -35.74z"/>
   <path class="fil4" d="M13315.62 5777.23l-74.46 0c-5.32,0 -9.67,-4.34 -9.67,-9.67l0 -22.72 93.79 0 0 22.72c0,5.32 -4.34,9.67 -9.67,9.67z"/>
   <path class="fil4" d="M13132.62 5782.79l-212.98 0 0 -36.99 249.96 0 0 0.01c0,20.34 -16.64,36.98 -36.98,36.98z"/>
   <path class="fil4" d="M12960.74 5760.31l-439.97 0c-18.08,0 -32.87,-14.79 -32.87,-32.87l0 -52.22c0,-24.46 20.01,-44.48 44.48,-44.48l428.37 0 0 129.58z"/>
   <path class="fil4" d="M12934.67 5713.57l-358.63 0c-25.59,0 -46.53,-20.93 -46.53,-46.53l0 -73.92c0,-34.63 28.32,-62.96 62.96,-62.96l342.2 0 0 183.4z"/>
   <path class="fil4" d="M14424.72 5797.05l-642.99 0c-20.21,0 -36.74,-16.53 -36.74,-36.74l0 -204.03 716.47 0 0 204.03c0,20.21 -16.53,36.74 -36.74,36.74z"/>
   <rect class="fil4" transform="matrix(-0.130244 -0.0239524 -0.0271327 0.236128 13771.1 5664.21)" width="1340.14" height="425.69"/>
   <polygon class="fil4" points="13419.32,5761.81 13445.77,5736.36 13472.22,5710.92 13419.32,5710.92 13366.42,5710.92 13392.87,5736.36 "/>
   <g>
    <rect class="fil4" x="13420.2" y="5666.51" width="145.43" height="95.73"/>
    <polygon class="fil4" points="13565.92,5762 13592.36,5736.55 13618.81,5711.1 13565.92,5711.1 13513.02,5711.1 13539.46,5736.55 "/>
    <rect class="fil4" x="13361.06" y="4915.18" width="44.6" height="820.95"/>
   </g>
   <path class="fil10" d="M14876.29 4884.24l-1485.26 0 0 839.32 601.77 0c5.36,-84.64 84.35,-151.81 181.01,-151.81 96.65,0 175.64,67.17 181.01,151.81l521.48 0 0 -839.32z"/>
   <g>
    <circle class="fil2" cx="14175.24" cy="5755.47" r="152.53"/>
    <circle class="fil4" cx="14175.24" cy="5755.47" r="119.19"/>
    <circle class="fil5" cx="14175.24" cy="5755.47" r="90.85"/>
    <circle class="fil6" cx="14175.24" cy="5755.47" r="48.35"/>
   </g>
   <g>
    <circle class="fil2" cx="12768.57" cy="5755.24" r="152.53"/>
    <circle class="fil4" cx="12768.57" cy="5755.24" r="119.19"/>
    <circle class="fil5" cx="12768.57" cy="5755.24" r="90.85"/>
    <circle class="fil6" cx="12768.57" cy="5755.24" r="48.35"/>
   </g>
   <path class="fil11" d="M13363.48 5750.63l-403.35 0 -3.26 -13.53c-21.24,-68.69 -34.31,-166.9 -115.07,-190.49 -33.81,-9.88 -87.12,-8.12 -138.27,-2.9 -26.7,2.72 -70.1,46.9 -69.14,65.27 0.04,0.67 -0.77,8.21 -1.44,8.21 -46.9,0.48 -87.7,1.24 -116.53,0.97 -1.7,-0.01 -0.24,-111.08 0,-157.13 0.41,-77.86 112.68,-77.01 320.55,-96.68 151.21,-140.19 183.6,-187.32 257.21,-237.41 46.66,-31.76 121.84,-30.94 269.3,-32.52l0 656.21zm-526.51 -655.16l0 -2.37 2.57 0 -2.57 2.37z"/>
   <path class="fil2 str0" d="M12509.4 5627.84l87.77 0 0 67.69 -118.71 0 0 -36.75c0,-17.02 13.93,-30.93 30.94,-30.93z"/>
   <path class="fil2 str0" d="M12478.55 5705.12l118.71 0 0 55.11 -80.04 0c-21.27,0 -38.67,-17.4 -38.67,-38.67l0 -16.44z"/>
   <path class="fil8" d="M13315.61 5120.18c-18.91,0 -195.28,12.37 -200.16,14.5 -32.75,14.33 -193.39,150.55 -193.39,186.63 0,167.78 -21.93,161.74 38.68,309.43 17.3,42.16 32.52,91.58 48.89,91.58l305.98 0c12.77,0 23.21,-10.44 23.21,-23.2l0 -555.73c0,-12.76 -10.44,-23.2 -23.21,-23.2z"/>
   <path class="fil6" d="M13277.9 5157.89l-156.98 0 -160.18 139.65 0 65.35 311.36 0c11.7,0 21.27,-9.58 21.27,-21.28l0 -168.25c0,-8.52 -6.95,-15.47 -15.47,-15.47z"/>
   <rect class="fil2 str0" x="13205.38" y="5421.87" width="89.93" height="22.24" rx="13.54" ry="13.54"/>
   <rect class="fil2 str0" x="12967.02" y="5351.28" width="89.93" height="33.36" rx="13.54" ry="20.3"/>
   <rect class="fil2 str0" x="12954.93" y="5226.54" width="61.89" height="109.37"/>
   <rect class="fil2 str0" x="12978.29" y="5330.97" width="16.29" height="31.91"/>
   <rect class="fil2 str0" x="12508.2" y="5465.38" width="78.32" height="60.92" rx="7.74" ry="7.74"/>
   <rect class="fil9 str0" x="12544.94" y="5474.08" width="31.91" height="30.94"/>
   <path class="fil2 str0" d="M12508.08 5596.11l35.79 0c0.46,-24.38 18.25,-44.5 41.57,-48.56l0 -17.19 -77.36 0 0 65.76z"/>
   <g>
    <g style="clip-path:url(#id0)">
     <image x="13483.56" y="5017.51" width="1327.29" height="10.85" xlink:href="страница 404_Images\страница 404_ImgID1.png"/>
    </g>
   </g>
   <rect class="fil8" x="13483.86" y="4986.67" width="1326.67" height="30.94" rx="21.27" ry="21.27"/>
   <g>
    <g style="clip-path:url(#id1)">
     <image x="13483.73" y="5114.11" width="1327.29" height="10.85" xlink:href="страница 404_Images\страница 404_ImgID2.png"/>
    </g>
   </g>
   <rect class="fil8" x="13484.04" y="5083.26" width="1326.67" height="30.94" rx="21.27" ry="21.27"/>
   <g>
    <g style="clip-path:url(#id2)">
     <image x="13483.9" y="5210.69" width="1327.29" height="10.85" xlink:href="страница 404_Images\страница 404_ImgID3.png"/>
    </g>
   </g>
   <rect class="fil8" x="13484.22" y="5179.86" width="1326.67" height="30.94" rx="21.27" ry="21.27"/>
   <g>
    <g style="clip-path:url(#id3)">
     <image x="13484.08" y="5307.28" width="1327.29" height="10.85" xlink:href="страница 404_Images\страница 404_ImgID4.png"/>
    </g>
   </g>
   <rect class="fil8" x="13484.39" y="5276.45" width="1326.67" height="30.94" rx="21.27" ry="21.27"/>
   <g>
    <g style="clip-path:url(#id4)">
     <image x="13484.26" y="5403.87" width="1327.29" height="10.85" xlink:href="страница 404_Images\страница 404_ImgID5.png"/>
    </g>
   </g>
   <rect class="fil8" x="13484.57" y="5373.04" width="1326.67" height="30.94" rx="21.27" ry="21.27"/>
   <g>
    <g style="clip-path:url(#id5)">
     <image x="13484.43" y="5500.47" width="1327.3" height="10.85" xlink:href="страница 404_Images\страница 404_ImgID6.png"/>
    </g>
   </g>
   <rect class="fil8" x="13484.74" y="5469.63" width="1326.67" height="30.94" rx="21.27" ry="21.27"/>
   <path class="fil2 str0" d="M13285.63 5357.08c4.08,-2.75 6.77,-7.37 6.77,-12.57l0 -171.35c0,-5.2 -2.69,-9.82 -6.77,-12.57l0 196.5z"/>
  </g>
  <g id="_2362062306912">
   <ellipse class="fil3" cx="7324.58" cy="5941.23" rx="1087.92" ry="17.44"/>
   <path class="fil4" d="M8426.16 5785.63l-159.33 0 0 29.13 157.61 0c8.49,0 15.42,-6.93 15.42,-15.42l0 -0.01c0,-7.54 -6.16,-13.7 -13.7,-13.7z"/>
   <path class="fil4" d="M8182.95 5775.92l-90.93 0 0 32.64c0,8.52 6.96,15.48 15.48,15.48l59.97 0c8.52,0 15.48,-6.96 15.48,-15.48l0 -32.64z"/>
   <path class="fil4" d="M6993.78 5834.62l-67.98 0c-4.86,0 -8.82,-3.97 -8.82,-8.82l0 -20.75 85.63 0 0 20.75c0,4.86 -3.97,8.82 -8.82,8.82z"/>
   <path class="fil4" d="M6826.7 5839.7l-194.45 0 0 -33.76 228.22 0 0 0c0,18.58 -15.19,33.76 -33.76,33.76z"/>
   <path class="fil4" d="M6669.77 5819.17l-401.7 0c-16.51,0 -30.01,-13.5 -30.01,-30l0 -47.67c0,-22.34 18.27,-40.62 40.61,-40.62l391.1 0 0 118.3z"/>
   <path class="fil4" d="M6653.21 5776.5l-334.71 0c-23.36,0 -42.48,-19.11 -42.48,-42.48l0 -67.49c0,-31.62 25.86,-57.48 57.48,-57.48l319.71 0 0 167.44z"/>
   <path class="fil4" d="M8006.39 5852.73l-587.05 0c-18.46,0 -33.55,-15.09 -33.55,-33.55l0 -186.28 654.14 0 0 186.28c0,18.46 -15.09,33.55 -33.55,33.55z"/>
   <rect class="fil4" transform="matrix(-0.118913 -0.0218685 -0.0247722 0.215584 7409.67 5731.44)" width="1340.14" height="425.69"/>
   <polygon class="fil4" points="7088.46,5820.55 7112.6,5797.32 7136.75,5774.08 7088.46,5774.08 7040.16,5774.08 7064.31,5797.32 "/>
   <g>
    <polygon class="fil4" points="7222.03,5820.94 7089.26,5820.94 7089.26,5733.54 7222.03,5733.54 "/>
    <polygon class="fil4" points="7222.29,5820.72 7246.44,5797.49 7270.59,5774.26 7222.29,5774.26 7174,5774.26 7198.15,5797.49 "/>
    <polygon class="fil4" points="7035.27,5797.1 7075.99,5797.1 7075.99,5576.53 7037.47,5576.53 7037.47,5211.94 7035.27,5211.94 "/>
   </g>
   <path class="fil10" d="M7062.63 5576.53l0 209.09 549.41 0c4.9,-77.27 77.01,-138.6 165.25,-138.6 88.25,0 160.37,61.33 165.27,138.6l476.11 0 0 -209.09 -1356.04 0z"/>
   <g>
    <circle class="fil2" cx="7778.61" cy="5814.76" r="139.26"/>
    <circle class="fil4" cx="7778.61" cy="5814.76" r="108.82"/>
    <circle class="fil5" cx="7778.61" cy="5814.76" r="82.95"/>
    <circle class="fil6" cx="7778.61" cy="5814.76" r="44.14"/>
   </g>
   <g>
    <circle class="fil2" cx="6494.32" cy="5814.55" r="139.26"/>
    <circle class="fil4" cx="6494.32" cy="5814.55" r="108.82"/>
    <circle class="fil5" cx="6494.32" cy="5814.55" r="82.95"/>
    <circle class="fil6" cx="6494.32" cy="5814.55" r="44.14"/>
   </g>
   <path class="fil12" d="M7037.47 5810.35l-368.26 0 -2.98 -12.36c-19.39,-62.71 -31.32,-152.38 -105.06,-173.92 -30.88,-9.02 -79.54,-7.41 -126.24,-2.65 -24.38,2.49 -64.01,42.83 -63.13,59.59 0.03,0.61 -0.7,7.5 -1.33,7.51 -42.82,0.44 -80.06,1.13 -106.38,0.88 -1.56,-0.01 -0.22,-101.42 0,-143.46 0.37,-71.08 102.87,-70.3 292.66,-88.26 138.06,-127.99 167.62,-171.03 234.83,-216.75 42.61,-29 111.24,-28.25 245.87,-29.7l0 599.12zm-480.71 -598.16l0 -2.18 2.35 0 -2.35 2.18z"/>
   <path class="fil2 str0" d="M6257.7 5698.22l80.14 0 0 61.8 -108.38 0 0 -33.56c0,-15.54 12.7,-28.24 28.24,-28.24z"/>
   <path class="fil2 str0" d="M6229.53 5768.79l108.38 0 0 50.32 -73.08 0c-19.42,0 -35.31,-15.89 -35.31,-35.31l0 -15.02z"/>
   <path class="fil8" d="M6993.78 5234.74c-17.27,0 -178.31,11.3 -182.75,13.25 -29.91,13.09 -176.58,137.45 -176.58,170.38 0,153.19 -20.02,147.67 35.32,282.51 15.8,38.49 29.69,83.61 44.64,83.61l279.37 0c11.64,0 21.18,-9.53 21.18,-21.18l0 -507.38c0,-11.65 -9.53,-21.19 -21.18,-21.19z"/>
   <path class="fil6" d="M6959.34 5269.16l-143.33 0 -146.24 127.51 0 59.65 284.28 0c10.67,0 19.42,-8.74 19.42,-19.42l0 -153.61c0,-7.77 -6.36,-14.13 -14.13,-14.13z"/>
   <rect class="fil2 str0" x="6893.13" y="5510.18" width="82.1" height="20.31" rx="12.36" ry="12.36"/>
   <rect class="fil2 str0" x="6675.51" y="5445.74" width="82.1" height="30.46" rx="12.36" ry="18.54"/>
   <rect class="fil2 str0" x="6664.47" y="5331.85" width="56.5" height="99.86"/>
   <rect class="fil2 str0" x="6685.79" y="5427.2" width="14.88" height="29.13"/>
   <rect class="fil2 str0" x="6256.6" y="5549.91" width="71.51" height="55.62" rx="7.06" ry="7.06"/>
   <rect class="fil9 str0" x="6290.15" y="5557.86" width="29.13" height="28.25"/>
   <path class="fil2 str0" d="M6256.5 5669.27l32.68 0c0.42,-22.25 16.67,-40.63 37.95,-44.34l0 -15.7 -70.62 0 0 60.04z"/>
   <path class="fil2 str0" d="M6966.4 5451.03c3.72,-2.51 6.18,-6.73 6.18,-11.48l0 -156.44c0,-4.76 -2.46,-8.97 -6.18,-11.49l0 179.4z"/>
   <path class="fil13" d="M7180.56 5348.08l13.4 0 0 115.17 -7.45 0c-14.74,0 -26.8,-12.06 -26.8,-26.8l0 -67.53c0,-11.47 9.38,-20.84 20.84,-20.84z"/>
   <rect class="fil6" x="7298.21" y="5131.41" width="17.23" height="129.81"/>
   <rect class="fil13" transform="matrix(0.161134 -0.0492415 0.0751314 0.105608 7991.61 4906.61)" width="569.61" height="311.39"/>
   <path class="fil13" d="M8054.69 4938.16c-40.2,13.67 -139.39,38.17 -265.07,72.23 -194.91,52.83 -452.69,109.31 -531.62,154.21 -51.53,29.31 -68.45,70.26 -95.31,67.34 -22.25,-2.41 -43.14,-26.81 -46.16,-51.73 -3.37,-27.75 15.65,-53.04 35.73,-60.5 65.53,-24.41 208.21,-61.24 358.88,-99.55 148.17,-37.69 305.14,-78.68 409.52,-105.41 103.41,-26.49 91.65,-30.95 134.02,23.42z"/>
   <path class="fil13" d="M7287.78 5576.46l-108.66 0c-3.23,-66.97 9.87,-141.45 7.4,-205.94 -1.51,-39.72 -15.95,-93.17 -19.35,-130.78 -4.06,-44.64 -18.63,-74.23 -13.4,-91.74 9.3,-31.18 72.73,-30.88 83.39,-2.93 14.9,39.04 35.06,91.18 37.24,138.59l13.39 292.8z"/>
   <path class="fil13" d="M7300.99 5255.36l-0.01 0c-16.26,0 -29.57,13.31 -29.57,29.58l0 206.61 59.56 0 0 -206.21c0,-16.49 -13.48,-29.98 -29.98,-29.98z"/>
   <rect class="fil14 str1" x="8084.47" y="4898.15" width="74.46" height="81.98"/>
   <path class="fil14 str2" d="M8147.78 5057.17c-7.12,4.07 -14.85,6.25 -22.18,6.25 -20.2,0 -32.37,-16.18 -27.18,-36.16 5.18,-19.96 25.77,-36.15 45.97,-36.15"/>
   <circle class="fil2 str0" cx="7191.74" cy="5172.05" r="24.72"/>
   <circle class="fil15" cx="8121.7" cy="4889.43" r="47.56"/>
   <circle class="fil13" cx="8123" cy="4988.41" r="39.59"/>
   <circle class="fil2 str0" cx="8123" cy="4988.41" r="18.68"/>
   <circle class="fil2 str0" cx="8123" cy="4891.45" r="18.68"/>
  </g>
  <rect class="fil16" x="7480.3" y="5550.12" width="112.81" height="29.24" rx="8.35" ry="8.35"/>
  <rect class="fil16" x="7596.86" y="5550.12" width="112.81" height="29.24" rx="8.35" ry="8.35"/>
  <rect class="fil16" x="7713.19" y="5552.21" width="112.81" height="29.24" rx="8.35" ry="8.35"/>
  <rect class="fil16" x="7829.64" y="5554.29" width="112.81" height="29.24" rx="8.35" ry="8.35"/>
  <rect class="fil16" x="7946.08" y="5553.49" width="112.81" height="29.24" rx="8.35" ry="8.35"/>
  <rect class="fil16" x="8062.53" y="5555.06" width="112.81" height="29.24" rx="8.35" ry="8.35"/>
  <rect class="fil16" x="8006.33" y="5518.78" width="112.81" height="29.24" rx="8.35" ry="8.35"/>
  <rect class="fil16" x="7887.25" y="5518.78" width="112.81" height="29.24" rx="8.35" ry="8.35"/>
  <rect class="fil16" x="7768.17" y="5516.69" width="112.81" height="29.24" rx="8.35" ry="8.35"/>
  <rect class="fil16" x="7649.09" y="5516.69" width="112.81" height="29.24" rx="8.35" ry="8.35"/>
  <rect class="fil16" x="7530.01" y="5516.69" width="112.81" height="29.24" rx="8.35" ry="8.35"/>
  <rect class="fil16" x="7590.6" y="5481.18" width="112.81" height="29.24" rx="8.35" ry="8.35"/>
  <rect class="fil16" x="7651.18" y="5445.66" width="112.81" height="29.24" rx="8.35" ry="8.35"/>
  <rect class="fil16" x="7711.76" y="5410.14" width="112.81" height="29.24" rx="8.35" ry="8.35"/>
  <rect class="fil16" x="7770.26" y="5445.66" width="112.81" height="29.24" rx="8.35" ry="8.35"/>
  <rect class="fil16" x="7709.67" y="5481.18" width="112.81" height="29.24" rx="8.35" ry="8.35"/>
  <rect class="fil16" x="7828.75" y="5481.18" width="112.81" height="29.24" rx="8.35" ry="8.35"/>
  <rect class="fil16" x="7947.83" y="5481.18" width="112.81" height="29.24" rx="8.35" ry="8.35"/>
  <rect class="fil16" x="7887.25" y="5443.57" width="112.81" height="29.24" rx="8.35" ry="8.35"/>
  <rect class="fil16" x="7826.66" y="5410.14" width="112.81" height="29.24" rx="8.35" ry="8.35"/>
  <rect class="fil16" x="7768.17" y="5374.63" width="112.81" height="29.24" rx="8.35" ry="8.35"/>
 </g>
</svg>
